<svg width="150" height="150" viewBox="0 0 150 150" fill="none" xmlns="http://www.w3.org/2000/svg">
<path opacity="0.32" d="M31.2251 14.7491L75 0.525732L118.775 14.7491L145.829 51.9862V98.0138L118.775 135.251L75 149.474L31.2251 135.251L4.17076 98.0138V51.9862L31.2251 14.7491Z" stroke="#FFFCF6"/>
<path d="M84 102.75C84 102.75 81.375 103.5 79.125 105.75C76.875 108 75 111.75 75 111.75C75 111.75 73.125 108 70.875 105.75C68.625 103.5 66 102.75 66 102.75" stroke="#FCD043" stroke-width="2"/>
<path d="M55.0928 41.2969L53.3633 51.25H52.1328L53.8623 41.2969H55.0928ZM60.1035 41.2969L55.6602 46.7725H53.6641L53.6504 45.6787H55.0244L58.4971 41.2969H60.1035ZM57.1094 51.25L54.9766 46.5332L55.8174 45.4463L58.5176 51.25H57.1094ZM62.0859 43.8535L60.8008 51.25H59.625L60.9102 43.8535H62.0859ZM61.1836 41.9053C61.1927 41.7048 61.2565 41.5316 61.375 41.3857C61.4935 41.2354 61.6553 41.1579 61.8604 41.1533C62.0745 41.1488 62.2409 41.2194 62.3594 41.3652C62.4779 41.5111 62.5326 41.6842 62.5234 41.8848C62.5143 42.0762 62.4482 42.2448 62.3252 42.3906C62.2021 42.5319 62.0404 42.6048 61.8398 42.6094C61.6302 42.6139 61.4661 42.5479 61.3477 42.4111C61.2337 42.2699 61.179 42.1012 61.1836 41.9053ZM66.4404 49.5547L69.3457 43.8535H70.5215L66.6113 51.25H65.791L64.458 43.8535H65.5244L66.4404 49.5547ZM65.2168 43.8535L63.9316 51.25H62.7559L64.041 43.8535H65.2168ZM68.375 51.25L69.6602 43.8535H70.8496L69.5645 51.25H68.375ZM76.25 47.0596L76.0654 48.085H73.0166L73.1943 47.0596H76.25ZM74.001 43.8535L72.7158 51.25H71.5332L72.8184 43.8535H74.001ZM77.7607 43.8535L76.4756 51.25H75.293L76.5781 43.8535H77.7607ZM82.0947 49.9854L82.7441 45.959C82.7669 45.722 82.7533 45.5146 82.7031 45.3369C82.6576 45.1546 82.5618 45.0111 82.416 44.9062C82.2747 44.8014 82.0742 44.749 81.8145 44.749C81.5775 44.7445 81.3656 44.7923 81.1787 44.8926C80.9919 44.9883 80.8369 45.1227 80.7139 45.2959C80.5954 45.4691 80.5133 45.6696 80.4678 45.8975L79.2988 45.9043C79.3307 45.5716 79.4242 45.2708 79.5791 45.002C79.7386 44.7285 79.9414 44.4961 80.1875 44.3047C80.4336 44.1087 80.707 43.9606 81.0078 43.8604C81.3086 43.7555 81.6208 43.7054 81.9443 43.71C82.4092 43.7145 82.7965 43.8125 83.1064 44.0039C83.4163 44.1908 83.6396 44.4551 83.7764 44.7969C83.9176 45.1341 83.9655 45.5306 83.9199 45.9863L83.3184 49.6367C83.2773 49.8965 83.2614 50.1471 83.2705 50.3887C83.2796 50.6302 83.291 50.8786 83.3047 51.1338L83.291 51.25L82.1084 51.2568C82.0628 51.0472 82.0423 50.8353 82.0469 50.6211C82.0514 50.4069 82.0674 50.195 82.0947 49.9854ZM82.833 46.7656L82.6895 47.6543L81.9375 47.6475C81.696 47.6475 81.4544 47.6748 81.2129 47.7295C80.9759 47.7842 80.7549 47.8708 80.5498 47.9893C80.3493 48.1032 80.1807 48.2559 80.0439 48.4473C79.9118 48.6341 79.8298 48.8643 79.7979 49.1377C79.7705 49.361 79.7773 49.5615 79.8184 49.7393C79.8639 49.9124 79.9528 50.0514 80.085 50.1562C80.2217 50.2565 80.4131 50.3066 80.6592 50.3066C80.9144 50.3066 81.1605 50.2497 81.3975 50.1357C81.6344 50.0218 81.8372 49.8669 82.0059 49.6709C82.179 49.4749 82.293 49.2516 82.3477 49.001L82.5322 49.5752C82.4775 49.8122 82.3841 50.0423 82.252 50.2656C82.1243 50.4844 81.9671 50.6803 81.7803 50.8535C81.5934 51.0221 81.3838 51.1543 81.1514 51.25C80.9235 51.3503 80.6797 51.4004 80.4199 51.4004C80.0052 51.4004 79.6566 51.307 79.374 51.1201C79.0915 50.9333 78.8818 50.6826 78.7451 50.3682C78.6084 50.0492 78.5537 49.6891 78.5811 49.2881C78.6038 48.8597 78.7064 48.486 78.8887 48.167C79.0755 47.848 79.3171 47.5859 79.6133 47.3809C79.9095 47.1712 80.2399 47.0163 80.6045 46.916C80.9736 46.8112 81.3564 46.7588 81.7529 46.7588L82.833 46.7656ZM88.6162 43.8535L87.3311 51.25H86.1484L87.4336 43.8535H88.6162ZM90.5713 43.8535L90.3936 44.8789H85.3213L85.5059 43.8535H90.5713ZM92.1709 49.1582L95.6504 43.8535H96.8672L95.582 51.25H94.3994L95.3223 45.9521L91.8428 51.25H90.6328L91.918 43.8535H93.0938L92.1709 49.1582Z" fill="#FCD043"/>
<path d="M71.0684 56.6035V64H69.8584V56.6035H71.0684ZM73.085 56.6035V57.6289H67.8691V56.6035H73.085ZM77.8838 62.7354V58.7227C77.8838 58.431 77.8382 58.1963 77.7471 58.0186C77.6605 57.8408 77.5283 57.7109 77.3506 57.6289C77.1774 57.5469 76.9587 57.5059 76.6943 57.5059C76.4391 57.5059 76.2181 57.5583 76.0312 57.6631C75.849 57.7679 75.7077 57.9069 75.6074 58.0801C75.5117 58.2533 75.4639 58.4447 75.4639 58.6543H74.2539C74.2539 58.39 74.3109 58.1279 74.4248 57.8682C74.5433 57.6084 74.7119 57.3737 74.9307 57.1641C75.1494 56.9499 75.4115 56.7812 75.7168 56.6582C76.0267 56.5306 76.373 56.4668 76.7559 56.4668C77.2116 56.4668 77.6149 56.542 77.9658 56.6924C78.3167 56.8382 78.5924 57.0775 78.793 57.4102C78.9935 57.7428 79.0938 58.1849 79.0938 58.7363V62.3867C79.0938 62.6328 79.112 62.8949 79.1484 63.1729C79.1895 63.4508 79.2464 63.6901 79.3193 63.8906V64H78.0684C78.0091 63.8542 77.9635 63.6605 77.9316 63.4189C77.8997 63.1729 77.8838 62.945 77.8838 62.7354ZM78.0752 59.5156L78.0889 60.4043H77.248C76.9609 60.4043 76.6989 60.4362 76.4619 60.5C76.2295 60.5638 76.029 60.6572 75.8604 60.7803C75.6917 60.8988 75.5618 61.0469 75.4707 61.2246C75.3841 61.4023 75.3408 61.6051 75.3408 61.833C75.3408 62.1292 75.3818 62.3662 75.4639 62.5439C75.5459 62.7171 75.6689 62.8424 75.833 62.9199C75.9971 62.9974 76.2044 63.0361 76.4551 63.0361C76.7604 63.0361 77.0293 62.9655 77.2617 62.8242C77.4941 62.6829 77.6742 62.512 77.8018 62.3115C77.9339 62.111 77.9954 61.9242 77.9863 61.751L78.2529 62.3184C78.2347 62.4961 78.1755 62.6898 78.0752 62.8994C77.9795 63.1045 77.8451 63.3027 77.6719 63.4941C77.4987 63.681 77.2936 63.8359 77.0566 63.959C76.8242 64.0775 76.5622 64.1367 76.2705 64.1367C75.8421 64.1367 75.4661 64.0547 75.1426 63.8906C74.8236 63.7266 74.5752 63.485 74.3975 63.166C74.2197 62.847 74.1309 62.4528 74.1309 61.9834C74.1309 61.6279 74.1924 61.2998 74.3154 60.999C74.4385 60.6982 74.6208 60.4385 74.8623 60.2197C75.1038 59.9964 75.4069 59.8232 75.7715 59.7002C76.1406 59.5771 76.5667 59.5156 77.0498 59.5156H78.0752Z" fill="#FFFCF6"/>
<path d="M56.2822 75.4854V71.4727C56.2822 71.181 56.2367 70.9463 56.1455 70.7686C56.0589 70.5908 55.9268 70.4609 55.749 70.3789C55.5758 70.2969 55.3571 70.2559 55.0928 70.2559C54.8376 70.2559 54.6165 70.3083 54.4297 70.4131C54.2474 70.5179 54.1061 70.6569 54.0059 70.8301C53.9102 71.0033 53.8623 71.1947 53.8623 71.4043H52.6523C52.6523 71.14 52.7093 70.8779 52.8232 70.6182C52.9417 70.3584 53.1104 70.1237 53.3291 69.9141C53.5479 69.6999 53.8099 69.5312 54.1152 69.4082C54.4251 69.2806 54.7715 69.2168 55.1543 69.2168C55.61 69.2168 56.0133 69.292 56.3643 69.4424C56.7152 69.5882 56.9909 69.8275 57.1914 70.1602C57.3919 70.4928 57.4922 70.9349 57.4922 71.4863V75.1367C57.4922 75.3828 57.5104 75.6449 57.5469 75.9229C57.5879 76.2008 57.6449 76.4401 57.7178 76.6406V76.75H56.4668C56.4076 76.6042 56.362 76.4105 56.3301 76.1689C56.2982 75.9229 56.2822 75.695 56.2822 75.4854ZM56.4736 72.2656L56.4873 73.1543H55.6465C55.3594 73.1543 55.0973 73.1862 54.8604 73.25C54.6279 73.3138 54.4274 73.4072 54.2588 73.5303C54.0902 73.6488 53.9603 73.7969 53.8691 73.9746C53.7826 74.1523 53.7393 74.3551 53.7393 74.583C53.7393 74.8792 53.7803 75.1162 53.8623 75.2939C53.9443 75.4671 54.0674 75.5924 54.2314 75.6699C54.3955 75.7474 54.6029 75.7861 54.8535 75.7861C55.1589 75.7861 55.4277 75.7155 55.6602 75.5742C55.8926 75.4329 56.0726 75.262 56.2002 75.0615C56.3324 74.861 56.3939 74.6742 56.3848 74.501L56.6514 75.0684C56.6331 75.2461 56.5739 75.4398 56.4736 75.6494C56.3779 75.8545 56.2435 76.0527 56.0703 76.2441C55.8971 76.431 55.6921 76.5859 55.4551 76.709C55.2227 76.8275 54.9606 76.8867 54.6689 76.8867C54.2406 76.8867 53.8646 76.8047 53.541 76.6406C53.222 76.4766 52.9736 76.235 52.7959 75.916C52.6182 75.597 52.5293 75.2028 52.5293 74.7334C52.5293 74.3779 52.5908 74.0498 52.7139 73.749C52.8369 73.4482 53.0192 73.1885 53.2607 72.9697C53.5023 72.7464 53.8053 72.5732 54.1699 72.4502C54.5391 72.3271 54.9652 72.2656 55.4482 72.2656H56.4736ZM63.4873 69.3535V70.3994H60.5342V69.3535H63.4873ZM60.6914 69.3535V76.75H59.4814V69.3535H60.6914ZM64.5742 69.3535V76.75H63.3643V69.3535H64.5742ZM70.1318 75.4854V71.4727C70.1318 71.181 70.0863 70.9463 69.9951 70.7686C69.9085 70.5908 69.7764 70.4609 69.5986 70.3789C69.4255 70.2969 69.2067 70.2559 68.9424 70.2559C68.6872 70.2559 68.4661 70.3083 68.2793 70.4131C68.097 70.5179 67.9557 70.6569 67.8555 70.8301C67.7598 71.0033 67.7119 71.1947 67.7119 71.4043H66.502C66.502 71.14 66.5589 70.8779 66.6729 70.6182C66.7913 70.3584 66.96 70.1237 67.1787 69.9141C67.3975 69.6999 67.6595 69.5312 67.9648 69.4082C68.2747 69.2806 68.6211 69.2168 69.0039 69.2168C69.4596 69.2168 69.863 69.292 70.2139 69.4424C70.5648 69.5882 70.8405 69.8275 71.041 70.1602C71.2415 70.4928 71.3418 70.9349 71.3418 71.4863V75.1367C71.3418 75.3828 71.36 75.6449 71.3965 75.9229C71.4375 76.2008 71.4945 76.4401 71.5674 76.6406V76.75H70.3164C70.2572 76.6042 70.2116 76.4105 70.1797 76.1689C70.1478 75.9229 70.1318 75.695 70.1318 75.4854ZM70.3232 72.2656L70.3369 73.1543H69.4961C69.209 73.1543 68.9469 73.1862 68.71 73.25C68.4775 73.3138 68.277 73.4072 68.1084 73.5303C67.9398 73.6488 67.8099 73.7969 67.7188 73.9746C67.6322 74.1523 67.5889 74.3551 67.5889 74.583C67.5889 74.8792 67.6299 75.1162 67.7119 75.2939C67.7939 75.4671 67.917 75.5924 68.0811 75.6699C68.2451 75.7474 68.4525 75.7861 68.7031 75.7861C69.0085 75.7861 69.2773 75.7155 69.5098 75.5742C69.7422 75.4329 69.9222 75.262 70.0498 75.0615C70.182 74.861 70.2435 74.6742 70.2344 74.501L70.501 75.0684C70.4827 75.2461 70.4235 75.4398 70.3232 75.6494C70.2275 75.8545 70.0931 76.0527 69.9199 76.2441C69.7467 76.431 69.5417 76.5859 69.3047 76.709C69.0723 76.8275 68.8102 76.8867 68.5186 76.8867C68.0902 76.8867 67.7142 76.8047 67.3906 76.6406C67.0716 76.4766 66.8232 76.235 66.6455 75.916C66.4678 75.597 66.3789 75.2028 66.3789 74.7334C66.3789 74.3779 66.4404 74.0498 66.5635 73.749C66.6865 73.4482 66.8688 73.1885 67.1104 72.9697C67.3519 72.7464 67.6549 72.5732 68.0195 72.4502C68.3887 72.3271 68.8148 72.2656 69.2979 72.2656H70.3232ZM74.4316 70.7754V79.5938H73.2217V69.3535H74.3223L74.4316 70.7754ZM78.5674 72.7168V73.4072C78.5674 73.9906 78.5127 74.501 78.4033 74.9385C78.2985 75.3714 78.1413 75.7337 77.9316 76.0254C77.7266 76.3125 77.4736 76.529 77.1729 76.6748C76.8721 76.8161 76.528 76.8867 76.1406 76.8867C75.7533 76.8867 75.416 76.8138 75.1289 76.668C74.8464 76.5176 74.6071 76.3011 74.4111 76.0186C74.2197 75.736 74.0671 75.3965 73.9531 75C73.8438 74.599 73.7686 74.1501 73.7275 73.6533V72.6006C73.7686 72.0765 73.8438 71.6071 73.9531 71.1924C74.0625 70.7731 74.2129 70.4176 74.4043 70.126C74.6003 69.8298 74.8395 69.6042 75.1221 69.4492C75.4092 69.2943 75.7441 69.2168 76.127 69.2168C76.5234 69.2168 76.8721 69.2852 77.1729 69.4219C77.4782 69.5586 77.7334 69.7705 77.9385 70.0576C78.1481 70.3402 78.3053 70.7025 78.4102 71.1445C78.515 71.582 78.5674 72.1061 78.5674 72.7168ZM77.3574 73.4072V72.7168C77.3574 72.3066 77.3255 71.9489 77.2617 71.6436C77.2025 71.3382 77.1068 71.0853 76.9746 70.8848C76.8424 70.6842 76.6761 70.5339 76.4756 70.4336C76.2751 70.3333 76.0335 70.2832 75.751 70.2832C75.5094 70.2832 75.2952 70.3333 75.1084 70.4336C74.9261 70.5339 74.7689 70.6706 74.6367 70.8438C74.5046 71.0124 74.3952 71.2061 74.3086 71.4248C74.222 71.639 74.1582 71.8623 74.1172 72.0947V74.166C74.1947 74.4577 74.2972 74.7334 74.4248 74.9932C74.5524 75.2484 74.7233 75.4557 74.9375 75.6152C75.1562 75.7747 75.432 75.8545 75.7646 75.8545C76.0426 75.8545 76.2819 75.8044 76.4824 75.7041C76.6829 75.6038 76.847 75.4535 76.9746 75.2529C77.1068 75.0479 77.2025 74.7926 77.2617 74.4873C77.3255 74.1774 77.3574 73.8174 77.3574 73.4072ZM82.2383 69.3535V76.75H81.0283V69.3535H82.2383ZM84.2549 69.3535V70.3789H79.0391V69.3535H84.2549ZM89.0537 75.4854V71.4727C89.0537 71.181 89.0081 70.9463 88.917 70.7686C88.8304 70.5908 88.6982 70.4609 88.5205 70.3789C88.3473 70.2969 88.1286 70.2559 87.8643 70.2559C87.609 70.2559 87.388 70.3083 87.2012 70.4131C87.0189 70.5179 86.8776 70.6569 86.7773 70.8301C86.6816 71.0033 86.6338 71.1947 86.6338 71.4043H85.4238C85.4238 71.14 85.4808 70.8779 85.5947 70.6182C85.7132 70.3584 85.8818 70.1237 86.1006 69.9141C86.3193 69.6999 86.5814 69.5312 86.8867 69.4082C87.1966 69.2806 87.543 69.2168 87.9258 69.2168C88.3815 69.2168 88.7848 69.292 89.1357 69.4424C89.4867 69.5882 89.7624 69.8275 89.9629 70.1602C90.1634 70.4928 90.2637 70.9349 90.2637 71.4863V75.1367C90.2637 75.3828 90.2819 75.6449 90.3184 75.9229C90.3594 76.2008 90.4163 76.4401 90.4893 76.6406V76.75H89.2383C89.179 76.6042 89.1335 76.4105 89.1016 76.1689C89.0697 75.9229 89.0537 75.695 89.0537 75.4854ZM89.2451 72.2656L89.2588 73.1543H88.418C88.1309 73.1543 87.8688 73.1862 87.6318 73.25C87.3994 73.3138 87.1989 73.4072 87.0303 73.5303C86.8617 73.6488 86.7318 73.7969 86.6406 73.9746C86.554 74.1523 86.5107 74.3551 86.5107 74.583C86.5107 74.8792 86.5518 75.1162 86.6338 75.2939C86.7158 75.4671 86.8389 75.5924 87.0029 75.6699C87.167 75.7474 87.3743 75.7861 87.625 75.7861C87.9303 75.7861 88.1992 75.7155 88.4316 75.5742C88.6641 75.4329 88.8441 75.262 88.9717 75.0615C89.1038 74.861 89.1654 74.6742 89.1562 74.501L89.4229 75.0684C89.4046 75.2461 89.3454 75.4398 89.2451 75.6494C89.1494 75.8545 89.015 76.0527 88.8418 76.2441C88.6686 76.431 88.4635 76.5859 88.2266 76.709C87.9941 76.8275 87.7321 76.8867 87.4404 76.8867C87.012 76.8867 86.6361 76.8047 86.3125 76.6406C85.9935 76.4766 85.7451 76.235 85.5674 75.916C85.3896 75.597 85.3008 75.2028 85.3008 74.7334C85.3008 74.3779 85.3623 74.0498 85.4854 73.749C85.6084 73.4482 85.7907 73.1885 86.0322 72.9697C86.2738 72.7464 86.5768 72.5732 86.9414 72.4502C87.3105 72.3271 87.7367 72.2656 88.2197 72.2656H89.2451ZM95.7734 75.0684L97.749 69.3535H98.8975L96.1904 76.75H95.3564L92.6562 69.3535H93.8047L95.7734 75.0684ZM93.4561 69.3535V76.75H92.2529V69.3535H93.4561ZM98.0498 76.75V69.3535H99.2598V76.75H98.0498ZM103.84 76.8867C103.398 76.8867 102.999 76.8206 102.644 76.6885C102.288 76.5563 101.985 76.3558 101.734 76.0869C101.484 75.8135 101.292 75.4694 101.16 75.0547C101.028 74.64 100.962 74.1501 100.962 73.585V72.751C100.962 72.0993 101.037 71.5479 101.188 71.0967C101.342 70.6455 101.55 70.2832 101.81 70.0098C102.069 69.7318 102.363 69.5312 102.691 69.4082C103.02 69.2806 103.357 69.2168 103.703 69.2168C104.168 69.2168 104.564 69.292 104.893 69.4424C105.221 69.5928 105.487 69.8161 105.692 70.1123C105.897 70.4085 106.048 70.7731 106.144 71.2061C106.244 71.639 106.294 72.138 106.294 72.7031V73.4072H101.673V72.375H105.084V72.2041C105.066 71.8213 105.013 71.484 104.927 71.1924C104.845 70.9007 104.708 70.6729 104.517 70.5088C104.325 70.3402 104.054 70.2559 103.703 70.2559C103.48 70.2559 103.272 70.2946 103.081 70.3721C102.894 70.445 102.732 70.5749 102.596 70.7617C102.464 70.944 102.359 71.1969 102.281 71.5205C102.208 71.8441 102.172 72.2542 102.172 72.751V73.585C102.172 73.9814 102.208 74.3232 102.281 74.6104C102.359 74.8929 102.47 75.1276 102.616 75.3145C102.767 75.4967 102.949 75.6335 103.163 75.7246C103.382 75.8112 103.63 75.8545 103.908 75.8545C104.314 75.8545 104.649 75.777 104.913 75.6221C105.177 75.4626 105.408 75.2598 105.604 75.0137L106.239 75.7725C106.107 75.9593 105.934 76.1393 105.72 76.3125C105.51 76.4811 105.25 76.6201 104.94 76.7295C104.635 76.8343 104.268 76.8867 103.84 76.8867ZM111.968 72.5596V73.585H108.83V72.5596H111.968ZM109.076 69.3535V76.75H107.866V69.3535H109.076ZM112.952 69.3535V76.75H111.742V69.3535H112.952ZM117.539 69.3535V76.75H116.329V69.3535H117.539ZM119.556 69.3535V70.3789H114.34V69.3535H119.556ZM122.153 74.7471L124.833 69.3535H126.043V76.75H124.833V71.3564L122.153 76.75H120.95V69.3535H122.153V74.7471Z" fill="#FFFCF6"/>
</svg>
