<svg width="71" height="52" viewBox="0 0 71 52" fill="none" xmlns="http://www.w3.org/2000/svg">
<g opacity="0.64">
<path d="M3.51607 51.3179L2.73119 49.4865C2.38235 48.6435 2.64398 48.004 3.39979 47.6551C4.18468 47.3063 4.85328 47.5679 5.20212 48.411L5.75444 49.69L7.46956 48.9342L7.70212 49.4865L3.51607 51.3179ZM5.28933 49.8935L4.82421 48.7889C4.56258 48.1493 4.15561 48.004 3.66142 48.2075C3.16723 48.411 3.02189 48.8179 3.28351 49.4575L3.74863 50.5621L5.28933 49.8935Z" fill="#FFFCF6"/>
<path d="M1.36645 45.6797L0.872266 43.5867C0.668777 42.7436 1.01761 42.1332 1.71529 41.9588C2.23854 41.8425 2.7618 41.9588 3.02343 42.4529C2.99436 41.9006 3.3432 41.7262 3.77924 41.5808C4.21529 41.4355 4.70947 41.3483 4.94203 41.0285L5.08738 41.6971C4.94203 41.9006 4.44785 41.9297 4.04087 42.1041C3.63389 42.2785 3.28506 42.4529 3.40134 43.0343L3.75017 44.4878L5.63971 44.0518L5.78506 44.6332L1.36645 45.6797ZM2.96529 43.3832C2.84901 42.8308 2.58738 42.3948 1.94785 42.5402C1.5118 42.6564 1.25017 42.9471 1.36645 43.4995L1.71529 44.982L3.25599 44.6041L2.96529 43.3832Z" fill="#FFFCF6"/>
<path d="M0.176494 39.5179L0.00207506 36.3783L0.525331 36.3493L0.67068 38.8783L2.12417 38.7911L1.97882 36.4365L2.50208 36.4074L2.61835 38.7911L4.18812 38.7039L4.04277 36.1458L4.56603 36.1167L4.74045 39.2853L0.176494 39.5179Z" fill="#FFFCF6"/>
<path d="M0.0279541 33.6436L0.144233 32.8296L4.12679 31.8994L0.52214 29.9808L0.638419 29.1668L5.1733 29.7482L5.08609 30.3296L1.30702 29.8354L4.88261 31.754L4.82447 32.2773L0.870977 33.1784L4.65005 33.6726L4.56284 34.254L0.0279541 33.6436Z" fill="#FFFCF6"/>
<path d="M1.3656 26.3775L1.54002 25.7961L5.92955 27.1042L5.75513 27.6856L1.3656 26.3775Z" fill="#FFFCF6"/>
<path d="M6.60011 21.0298C7.64662 21.495 7.93732 22.3671 7.44313 23.3845C6.94895 24.4601 6.16406 24.8671 5.05941 24.3438L2.41406 23.1229L2.67569 22.5705L5.32104 23.7915C6.04778 24.1403 6.65825 23.8787 6.97802 23.1519C7.29778 22.4543 7.06523 21.8729 6.33848 21.5531L3.69313 20.3322L3.95476 19.7798L6.60011 21.0298Z" fill="#FFFCF6"/>
<path d="M5.43689 17.2219L5.93108 16.5533L9.88457 17.658L7.64619 14.2278L8.14038 13.5592L11.8322 16.2626L11.4834 16.7278L8.43108 14.4894L10.6404 17.8905L10.3206 18.2975L6.42526 17.1929L9.47759 19.4312L9.12875 19.8964L5.43689 17.2219Z" fill="#FFFCF6"/>
<path d="M12.6761 9.05401L14.3913 7.77494C15.0889 7.25169 15.7866 7.30983 16.2227 7.89123C16.5424 8.32727 16.6296 8.85052 16.2808 9.28657C16.775 9.05401 17.0948 9.28657 17.3855 9.63541C17.6761 9.98425 17.9668 10.3912 18.3448 10.4784L17.7924 10.8854C17.5308 10.8273 17.3273 10.3912 16.9785 10.0715C16.6587 9.75169 16.3389 9.51913 15.8738 9.86796L14.682 10.7691L15.8448 12.3389L15.3506 12.7168L12.6761 9.05401ZM15.4378 9.60634C15.9029 9.2575 16.1936 8.85053 15.7866 8.32727C15.525 7.97844 15.118 7.86216 14.682 8.18192L13.461 9.08308L14.4203 10.3622L15.4378 9.60634Z" fill="#FFFCF6"/>
<path d="M19.5655 4.51636C20.8736 3.87683 22.0364 4.57451 22.5887 5.70823C23.1411 6.81288 22.9957 8.17915 21.6876 8.81869C20.3794 9.45822 19.2166 8.76055 18.6643 7.62683C18.0829 6.52218 18.2573 5.1559 19.5655 4.51636ZM21.4259 8.35357C22.4143 7.85938 22.4143 6.7838 22.0073 5.96985C21.6004 5.1559 20.7573 4.4873 19.769 4.98148C18.7806 5.47567 18.7806 6.55125 19.1876 7.3652C19.5945 8.17915 20.4376 8.84776 21.4259 8.35357Z" fill="#FFFCF6"/>
<path d="M25.9596 2.13534C27.355 1.75744 28.3724 2.68767 28.6922 3.87953C29.012 5.07139 28.605 6.37952 27.1806 6.75743C25.7561 7.13534 24.7678 6.2051 24.448 5.01325C24.1573 3.79232 24.5643 2.48418 25.9596 2.13534ZM27.0643 6.26324C28.1399 5.97255 28.3433 4.92604 28.1108 4.05394C27.8782 3.15278 27.1806 2.3679 26.105 2.62953C25.0294 2.92022 24.8259 3.96674 25.0585 4.83883C25.291 5.73999 25.9887 6.52487 27.0643 6.26324Z" fill="#FFFCF6"/>
<path d="M30.8452 1.23421L31.6882 1.17608L33.3161 4.92608L34.5661 1.03073L35.4092 0.972587L35.6417 5.53654L35.0603 5.56562L34.8568 1.75747L33.6359 5.62375L33.1127 5.65282L31.4848 1.93189L31.6882 5.74003L31.1068 5.7691L30.8452 1.23421Z" fill="#FFFCF6"/>
<path d="M40.7875 2.86133C40.8166 2.19272 40.4096 1.87296 39.7992 1.78575C39.305 1.72761 38.7526 1.81482 38.6654 2.42528C38.5782 2.97761 39.305 3.1811 40.0026 3.44273C40.7003 3.70435 41.398 4.05319 41.2526 4.95435C41.1073 5.91366 40.1189 6.17529 39.305 6.05901C38.2875 5.91366 37.5026 5.30319 37.648 4.19854L38.2294 4.28575C38.1131 5.04156 38.7236 5.47761 39.3922 5.56482C39.9445 5.65203 40.555 5.56482 40.6422 4.89622C40.7294 4.28575 40.0317 4.05319 39.334 3.79156C38.6364 3.52993 37.9387 3.21017 38.055 2.39621C38.1712 1.46598 39.0724 1.17528 39.8864 1.29156C40.8166 1.40784 41.4561 1.96017 41.3399 2.94854L40.7875 2.86133Z" fill="#FFFCF6"/>
<path d="M43.1083 5.99907L43.7769 6.20255L43.5734 6.87115L42.9048 6.66766L43.1083 5.99907Z" fill="#FFFCF6"/>
<path d="M50.6401 4.72012L52.0936 5.53408C52.4424 5.73756 52.9076 5.99919 53.0529 6.26082C53.2273 6.55152 53.2855 6.9585 53.0529 7.36548C52.8204 7.80152 52.4134 7.97594 51.9483 7.9178C52.3843 8.29571 52.4424 8.81897 52.1517 9.31315C51.832 9.89455 51.0762 10.2143 50.2913 9.77827L48.3727 8.70269L50.6401 4.72012ZM49.1866 8.52827L50.5238 9.28408C50.989 9.54571 51.425 9.42943 51.6866 8.99338C51.9773 8.47013 51.6285 8.09222 51.1924 7.83059L49.9715 7.16199L49.1866 8.52827ZM50.2041 6.72594L51.2506 7.3364C51.8611 7.68524 52.2099 7.59803 52.4424 7.19106C52.7622 6.63873 52.4134 6.34803 51.9483 6.0864L50.9018 5.47594L50.2041 6.72594Z" fill="#FFFCF6"/>
<path d="M56.945 8.81917L57.4683 9.25521L55.9276 13.9064L55.4043 13.4703L55.8985 12.104L54.4159 10.8831L53.1369 11.6099L52.6427 11.2029L56.945 8.81917ZM54.8811 10.5924L56.0729 11.5808L56.8287 9.4587L54.8811 10.5924Z" fill="#FFFCF6"/>
<path d="M60.4936 12.0458L60.9006 12.54L59.6215 16.7551L62.4413 14.3714L62.8192 14.8075L59.3309 17.7726L58.8948 17.2784L60.1448 13.0923L57.3541 15.447L56.9762 15.011L60.4936 12.0458Z" fill="#FFFCF6"/>
<path d="M64.5061 17.221L64.7968 17.7443L62.8201 18.878L65.9596 19.7501L66.3375 20.4187L63.7793 19.6629L62.4131 22.7443L62.0352 22.0757L63.227 19.4885L62.2387 19.1687L60.8433 19.9536L60.5526 19.4303L64.5061 17.221Z" fill="#FFFCF6"/>
<path d="M68.4893 25.9134L68.6346 26.4948L66.716 26.9599L67.2974 29.2855L69.216 28.8204L69.3614 29.4018L64.9137 30.4774L64.7684 29.896L66.8033 29.4018L66.2219 27.0762L64.187 27.5704L64.0416 26.989L68.4893 25.9134Z" fill="#FFFCF6"/>
<path d="M69.9997 34.2848C70.0579 35.7383 68.9532 36.5232 67.7032 36.5813C66.4532 36.6394 65.2904 35.9708 65.2032 34.5173C65.116 33.0639 66.2497 32.279 67.4997 32.2208C68.7497 32.1627 69.9125 32.8313 69.9997 34.2848ZM65.7265 34.4883C65.7846 35.5929 66.773 36.029 67.6741 35.9708C68.5753 35.9127 69.5346 35.4185 69.4765 34.3139C69.4183 33.2092 68.43 32.7732 67.5288 32.8313C66.6276 32.8894 65.6683 33.3836 65.7265 34.4883Z" fill="#FFFCF6"/>
<path d="M69.1852 40.0688L69.3887 38.5572L69.8829 38.6153L69.4178 42.249L68.9236 42.1909L69.1271 40.6793L65.1155 40.156L65.2027 39.5455L69.1852 40.0688Z" fill="#FFFCF6"/>
<path d="M68.8964 44.5461L67.9952 47.5693L67.5011 47.424L68.2278 44.9821L66.8325 44.5751L66.1639 46.8426L65.6697 46.6972L66.3383 44.4298L64.8266 43.9938L64.0999 46.4647L63.6057 46.3193L64.5069 43.267L68.8964 44.5461Z" fill="#FFFCF6"/>
<path d="M67.033 49.9809L66.7714 50.5332L63.1086 48.789L62.062 50.9692L61.5969 50.7367L62.9051 48.0041L67.033 49.9809Z" fill="#FFFCF6"/>
</g>
<path d="M30.2013 29.1717C29.8034 28.6498 29.9542 27.8968 30.5223 27.5681C31.0526 27.2614 31.7315 27.4902 31.968 28.0554L35.1549 35.6705L30.2013 29.1717Z" fill="#FCD043"/>
<path d="M41.6525 30.7176C42.1745 30.3197 42.9275 30.4705 43.2561 31.0387C43.5628 31.569 43.334 32.2478 42.7688 32.4843L35.1537 35.6712L41.6525 30.7176Z" fill="#FCD043"/>
<path d="M36.2676 27.5886C36.3543 26.9344 36.9966 26.5036 37.6351 26.6714C38.231 26.8281 38.5522 27.4722 38.319 28.0428L35.1954 35.6836L36.2676 27.5886Z" fill="#FCD043"/>
<path d="M43.2816 36.7612C43.9357 36.8478 44.3667 37.4901 44.1991 38.1286C44.0427 38.7245 43.3988 39.0458 42.8282 38.8126L35.1859 35.689L43.2816 36.7612Z" fill="#FCD043"/>
<path d="M40.1043 42.1697C40.5021 42.6917 40.3514 43.4447 39.7832 43.7733C39.2529 44.0801 38.5741 43.8513 38.3375 43.2861L35.1506 35.671L40.1043 42.1697Z" fill="#FCD043"/>
<path d="M28.6509 40.6219C28.129 41.0197 27.376 40.8689 27.0474 40.3008C26.7407 39.7705 26.9695 39.0916 27.5346 38.8551L35.1498 35.6682L28.6509 40.6219Z" fill="#FCD043"/>
<path d="M34.1087 43.7734C34.0221 44.4276 33.3798 44.8584 32.7413 44.6906C32.1454 44.5339 31.8241 43.8898 32.0574 43.3192L35.1809 35.6784L34.1087 43.7734Z" fill="#FCD043"/>
<path d="M27.0986 34.5995C26.4445 34.5128 26.0136 33.8706 26.1811 33.2321C26.3376 32.6361 26.9815 32.3149 27.552 32.5481L35.1943 35.6717L27.0986 34.5995Z" fill="#FCD043"/>
</svg>
