<svg width="86" height="87" viewBox="0 0 86 87" fill="none" xmlns="http://www.w3.org/2000/svg">
<g opacity="0.64">
<path d="M2.48754 39.0663L3.22754 37.2163C3.57698 36.3735 4.2142 36.1063 4.9953 36.3941C5.79696 36.7024 6.08474 37.3602 5.7353 38.2029L5.22141 39.4979L6.96863 40.1763L6.74252 40.7313L2.48754 39.0663ZM4.74864 39.3129L5.20086 38.2029C5.46808 37.5657 5.28308 37.1752 4.78975 36.9696C4.29642 36.7641 3.90586 36.9491 3.63864 37.5863L3.18642 38.6963L4.74864 39.3129Z" fill="#FFFCF6"/>
<path d="M4.95448 33.5596L6.08503 31.7301C6.53725 30.9902 7.21558 30.8052 7.83224 31.1752C8.28446 31.4629 8.57224 31.9151 8.40779 32.4496C8.77779 32.0385 9.14779 32.1618 9.5589 32.3674C9.97001 32.5729 10.3811 32.8607 10.7717 32.799L10.4017 33.3746C10.155 33.4157 9.78501 33.0868 9.3739 32.9224C8.96279 32.7579 8.59279 32.6346 8.26391 33.1279L7.4828 34.4024L9.12723 35.4301L8.8189 35.944L4.95448 33.5596ZM7.70891 33.0663C8.01724 32.5935 8.14057 32.1001 7.58558 31.7507C7.19502 31.5246 6.80447 31.5452 6.49614 32.0179L5.69448 33.3129L7.05114 34.1351L7.70891 33.0663Z" fill="#FFFCF6"/>
<path d="M8.47001 28.3609L10.5667 26.0176L10.9572 26.367L9.27167 28.2581L10.3611 29.2242L11.9233 27.4564L12.3139 27.8059L10.7106 29.5737L11.8822 30.622L13.5883 28.7103L13.9789 29.0598L11.8617 31.4236L8.47001 28.3609Z" fill="#FFFCF6"/>
<path d="M12.5188 24.1023L13.1766 23.6089L16.6505 25.7673L15.4582 21.8617L16.116 21.3684L18.9116 24.9862L18.4388 25.3356L16.116 22.314L17.2877 26.1989L16.8766 26.5278L13.4438 24.3695L15.7666 27.3911L15.2938 27.7406L12.5188 24.1023Z" fill="#FFFCF6"/>
<path d="M18.6026 19.9102L19.1371 19.6224L21.3159 23.6513L20.7815 23.9391L18.6026 19.9102Z" fill="#FFFCF6"/>
<path d="M26.0852 19.8302C26.4963 20.8991 26.0852 21.7213 25.0164 22.0913C23.9064 22.5024 23.0636 22.2352 22.6525 21.0841L21.6453 18.3502L22.2208 18.1447L23.228 20.8785C23.4953 21.6391 24.1119 21.8858 24.8519 21.598C25.5714 21.3308 25.818 20.7552 25.5302 20.0152L24.523 17.2813L25.0986 17.0758L26.0852 19.8302Z" fill="#FFFCF6"/>
<path d="M27.9553 16.315L28.7775 16.1916L30.792 19.7683L31.6347 15.76L32.4569 15.6366L33.1558 20.1588L32.5803 20.241L32.0047 16.5L31.162 20.4672L30.6481 20.5288L28.6748 16.9933L29.2503 20.7344L28.6748 20.8166L27.9553 16.315Z" fill="#FFFCF6"/>
<path d="M38.8497 15.6583L40.967 15.9666C41.8303 16.09 42.2825 16.6244 42.1797 17.3439C42.0975 17.8783 41.7892 18.31 41.2342 18.3716C41.7481 18.5566 41.8097 18.9472 41.7686 19.3994C41.7275 19.8516 41.6453 20.3449 41.8508 20.6738L41.1725 20.5711C41.0286 20.3449 41.1931 19.8927 41.1725 19.42C41.1725 18.9677 41.1108 18.5772 40.5353 18.495L39.0553 18.2894L38.7675 20.2216L38.1509 20.1394L38.8497 15.6583ZM40.412 18.0016C40.9875 18.0839 41.4808 18.0016 41.5631 17.3439C41.6247 16.9122 41.4192 16.5422 40.8847 16.46L39.3842 16.2339L39.1581 17.8166L40.412 18.0016Z" fill="#FFFCF6"/>
<path d="M46.9299 17.3212C48.3071 17.794 48.636 19.1095 48.2249 20.3017C47.8344 21.4734 46.7655 22.3367 45.3883 21.864C44.0111 21.3912 43.6822 20.0756 44.0933 18.8834C44.4633 17.6912 45.5527 16.8484 46.9299 17.3212ZM45.5322 21.3501C46.5805 21.6995 47.341 20.939 47.6288 20.0756C47.9166 19.2123 47.7932 18.1434 46.7449 17.794C45.6966 17.4445 44.936 18.2051 44.6483 19.0684C44.3605 19.9318 44.4838 21.0006 45.5322 21.3501Z" fill="#FFFCF6"/>
<path d="M53.135 20.1589C54.3888 20.8784 54.4505 22.2556 53.8338 23.3245C53.2172 24.3933 52.0044 25.0306 50.73 24.2906C49.4555 23.5506 49.4144 22.1939 50.0311 21.125C50.6889 20.0561 51.9016 19.4189 53.135 20.1589ZM50.9972 23.8589C51.9633 24.4139 52.8472 23.8178 53.2994 23.0367C53.7722 22.235 53.8338 21.1867 52.8883 20.6111C51.9222 20.0561 51.0383 20.6522 50.5861 21.4334C50.1133 22.235 50.0516 23.2833 50.9972 23.8589Z" fill="#FFFCF6"/>
<path d="M57.2267 22.9765L57.8639 23.5315L56.3633 27.3342L60.0017 25.4637L60.6389 26.0187L57.5761 29.4103L57.1444 29.0198L59.6933 26.1831L56.0961 28.0536L55.7056 27.7042L57.1856 23.922L54.6367 26.7587L54.205 26.3681L57.2267 22.9765Z" fill="#FFFCF6"/>
<path d="M63.1064 31.1573C63.5998 30.7051 63.5381 30.1912 63.1681 29.6979C62.8598 29.3073 62.4076 28.9784 61.9142 29.3484C61.462 29.6773 61.832 30.3351 62.1403 31.0134C62.4487 31.6917 62.6953 32.4317 61.9553 32.9662C61.1742 33.5417 60.2903 33.0278 59.797 32.3701C59.1804 31.5479 59.057 30.5612 59.9409 29.8829L60.2904 30.3556C59.6737 30.8079 59.797 31.5479 60.2081 32.0823C60.537 32.5345 61.0303 32.9045 61.5648 32.4934C62.0581 32.1234 61.7292 31.4656 61.4209 30.7873C61.1126 30.109 60.8454 29.3895 61.5031 28.8962C62.2431 28.3206 63.0859 28.7523 63.5792 29.4101C64.1548 30.1501 64.2164 30.9929 63.4353 31.6095L63.1064 31.1573Z" fill="#FFFCF6"/>
<path d="M62.5289 35.017L62.8577 35.6336L62.2411 35.9625L61.9122 35.3459L62.5289 35.017Z" fill="#FFFCF6"/>
<path d="M68.7589 39.4383L69.2111 41.0416C69.3139 41.4322 69.4578 41.9461 69.3756 42.2339C69.2934 42.5628 69.0467 42.8916 68.5945 43.015C68.1217 43.1589 67.7106 42.9944 67.4228 42.6244C67.4639 43.2 67.135 43.6111 66.58 43.755C65.9428 43.94 65.1823 43.6316 64.9356 42.7683L64.3395 40.6511L68.7589 39.4383ZM65.0384 41.1033L65.4495 42.5833C65.5934 43.0972 65.9839 43.3233 66.4773 43.2C67.0528 43.0355 67.0734 42.5216 66.95 42.0283L66.5595 40.6922L65.0384 41.1033ZM67.0323 40.5483L67.3406 41.72C67.5256 42.3983 67.8339 42.5833 68.2861 42.46C68.9028 42.2955 68.8617 41.8433 68.7178 41.3294L68.4095 40.1578L67.0323 40.5483Z" fill="#FFFCF6"/>
<path d="M70.3188 46.7951L70.3805 47.4734L66.0022 49.6728L65.9405 48.9945L67.2561 48.3779L67.0711 46.4662L65.6528 46.0757L65.5911 45.4384L70.3188 46.7951ZM67.6055 46.5895L67.7494 48.1312L69.7844 47.1651L67.6055 46.5895Z" fill="#FFFCF6"/>
<path d="M70.5464 51.586L70.4847 52.2232L66.5998 54.2993L70.2792 54.6076L70.2381 55.1832L65.6748 54.8132L65.7159 54.1554L69.5597 52.0793L65.9214 51.771L65.9625 51.1954L70.5464 51.586Z" fill="#FFFCF6"/>
<path d="M69.7243 58.0826L69.5598 58.6582L67.3604 58.0621L68.9637 60.8987L68.7582 61.6387L67.4837 59.2954L64.3387 60.5082L64.5443 59.7682L67.2165 58.7815L66.7437 57.8565L65.2021 57.4249L65.3665 56.8493L69.7243 58.0826Z" fill="#FFFCF6"/>
<path d="M66.3943 67.0457L66.0859 67.5596L64.4004 66.5318L63.1671 68.5874L64.8526 69.6151L64.5443 70.129L60.6388 67.7446L60.9471 67.2307L62.7354 68.3201L63.9687 66.2646L62.1804 65.1752L62.4887 64.6613L66.3943 67.0457Z" fill="#FFFCF6"/>
<path d="M61.5429 74.0331C60.5563 75.1019 59.2202 74.8758 58.2952 74.033C57.3702 73.1903 57.0207 71.8953 57.9868 70.8058C58.953 69.7164 60.3096 69.9631 61.2346 70.8058C62.1596 71.6486 62.5091 72.9436 61.5429 74.0331ZM58.3774 71.1553C57.6374 71.9775 58.028 72.9847 58.7063 73.5808C59.3846 74.1769 60.4124 74.5058 61.1524 73.6836C61.8924 72.8614 61.5018 71.8542 60.8235 71.2581C60.1452 70.662 59.1174 70.3331 58.3774 71.1553Z" fill="#FFFCF6"/>
<path d="M56.8771 77.547L58.0898 76.622L58.3982 77.0126L55.4998 79.2531L55.1915 78.8626L56.4043 77.9376L53.9376 74.7309L54.431 74.361L56.8771 77.547Z" fill="#FFFCF6"/>
<path d="M53.5069 80.5088L50.7319 82.0094L50.4853 81.5572L52.7258 80.3444L52.0269 79.07L49.9508 80.2005L49.7041 79.7483L51.7802 78.6177L51.0197 77.2405L48.7586 78.4739L48.5119 78.0216L51.3075 76.5005L53.5069 80.5088Z" fill="#FFFCF6"/>
<path d="M48.3462 83.0342L47.7707 83.2397L46.414 79.4164L44.1324 80.218L43.9679 79.7247L46.8251 78.7175L48.3462 83.0342Z" fill="#FFFCF6"/>
</g>
<path d="M37.0253 42.2713C37.1139 41.6227 37.7515 41.2002 38.3832 41.3715V41.3715C38.9728 41.5314 39.289 42.1728 39.0568 42.7377L35.9184 50.3711L37.0253 42.2713Z" fill="#FCD043"/>
<path d="M44.0253 51.4745C44.6739 51.5632 45.0964 52.2007 44.9253 52.8324V52.8324C44.7656 53.422 44.1243 53.7383 43.5594 53.5061L35.9251 50.3677L44.0253 51.4745Z" fill="#FCD043"/>
<path d="M42.4472 45.4519C42.9723 45.0534 43.7251 45.208 44.0499 45.781V45.781C44.3531 46.3159 44.1191 46.9982 43.5516 47.2337L35.9342 50.3951L42.4472 45.4519Z" fill="#FCD043"/>
<path d="M40.8931 56.912C41.2917 57.4371 41.1372 58.19 40.5642 58.5151V58.5151C40.0294 58.8185 39.3472 58.5846 39.1116 58.0171L35.9499 50.4002L40.8931 56.912Z" fill="#FCD043"/>
<path d="M34.8196 58.4733C34.7309 59.122 34.0934 59.5444 33.4617 59.3731V59.3731C32.8721 59.2132 32.5558 58.5718 32.788 58.0069L35.9264 50.3735L34.8196 58.4733Z" fill="#FCD043"/>
<path d="M27.8196 49.2672C27.171 49.1785 26.7484 48.541 26.9196 47.9093V47.9093C27.0793 47.3197 27.7206 47.0034 28.2854 47.2356L35.9198 50.374L27.8196 49.2672Z" fill="#FCD043"/>
<path d="M29.4333 55.3574C28.9081 55.7559 28.1554 55.6014 27.8306 55.0283V55.0283C27.5274 54.4934 27.7614 53.8112 28.3289 53.5756L35.9463 50.4143L29.4333 55.3574Z" fill="#FCD043"/>
<path d="M30.9911 43.899C30.5925 43.3739 30.7469 42.6211 31.3199 42.296V42.296C31.8548 41.9926 32.537 42.2264 32.7725 42.7939L35.9343 50.4108L30.9911 43.899Z" fill="#FCD043"/>
</svg>
