<svg width="150" height="150" viewBox="0 0 150 150" fill="none" xmlns="http://www.w3.org/2000/svg">
<path opacity="0.32" d="M31.2251 14.7491L75 0.525732L118.775 14.7491L145.829 51.9862V98.0138L118.775 135.251L75 149.474L31.2251 135.251L4.17076 98.0138V51.9862L31.2251 14.7491Z" stroke="#FFFCF6"/>
<path d="M84 102.75C84 102.75 81.375 103.5 79.125 105.75C76.875 108 75 111.75 75 111.75C75 111.75 73.125 108 70.875 105.75C68.625 103.5 66 102.75 66 102.75" stroke="#FCD043" stroke-width="2"/>
<path d="M55.054 40.374H57.812C58.806 40.374 59.772 40.64 59.772 41.886C59.772 42.6 59.408 43.86 57.308 43.86H54.312L55.054 40.374ZM51.848 49.25H53.178L54.074 44.98H57.028C57.602 44.98 58.946 44.728 58.526 47.108C58.33 48.13 58.372 48.886 58.498 49.25H59.884C59.478 48.452 59.814 47.598 59.87 46.688C59.968 45.68 59.716 44.784 58.848 44.518V44.49C60.178 44.294 61.102 43.132 61.102 41.802C61.102 39.828 59.506 39.254 57.812 39.254H53.962L51.848 49.25ZM62.762 46.38C62.762 44.882 63.714 42.894 65.534 42.894C66.836 42.894 67.438 43.804 67.438 44.938C67.438 46.366 66.486 48.368 64.75 48.368C63.448 48.368 62.762 47.57 62.762 46.38ZM61.572 46.394C61.572 48.144 62.72 49.418 64.624 49.418C67.158 49.418 68.628 47.206 68.628 44.84C68.628 42.908 67.55 41.844 65.618 41.844C63.084 41.844 61.572 44.028 61.572 46.394ZM70.801 46.38C70.801 44.882 71.753 42.894 73.573 42.894C74.875 42.894 75.477 43.804 75.477 44.938C75.477 46.366 74.525 48.368 72.789 48.368C71.487 48.368 70.801 47.57 70.801 46.38ZM69.611 46.394C69.611 48.144 70.759 49.418 72.663 49.418C75.197 49.418 76.667 47.206 76.667 44.84C76.667 42.908 75.589 41.844 73.657 41.844C71.123 41.844 69.611 44.028 69.611 46.394ZM77.3421 49.25H78.5321L79.3441 45.456C79.4981 44.742 79.6101 44.308 80.1141 43.818C80.5341 43.342 81.2341 42.894 81.8921 42.894C82.5361 42.894 82.9001 43.244 82.9001 43.846C82.9001 44.014 82.8021 44.56 82.6761 45.12L81.8081 49.25H82.9981L83.7961 45.512C83.9221 44.896 84.0761 44.308 84.4681 43.888C84.8741 43.37 85.6161 42.894 86.2881 42.894C86.9181 42.894 87.3941 43.314 87.3941 43.874C87.3941 44.084 87.3381 44.434 87.2821 44.658L86.2741 49.25H87.4641L88.3741 44.91C88.4721 44.504 88.5841 43.888 88.5841 43.468C88.5841 42.292 87.5901 41.844 86.5681 41.844C85.6021 41.844 84.6501 42.376 84.0901 43.146C83.8801 42.208 83.1801 41.844 82.2701 41.844C81.2761 41.844 80.3661 42.362 79.7501 43.118L79.7221 43.09L79.9881 42.012H78.8821L77.3421 49.25ZM95.494 44.14C95.494 42.446 94.108 41.844 92.764 41.844C91.42 41.844 90.076 42.586 90.076 43.93C90.076 45.022 91.028 45.512 91.994 45.89C92.946 46.282 93.898 46.562 93.898 47.262C93.898 48.088 93.016 48.368 92.246 48.368C91.252 48.368 90.342 48.046 90.398 46.968H89.208C89.194 48.816 90.482 49.418 92.134 49.418C93.534 49.418 95.088 48.788 95.088 47.178C95.088 46.044 94.122 45.54 93.17 45.148C92.218 44.756 91.266 44.49 91.266 43.818C91.266 43.09 92.078 42.894 92.806 42.894C93.632 42.894 94.36 43.314 94.304 44.14H95.494Z" fill="#FCD043"/>
<path d="M72.8184 63.1367C72.0983 63.1276 71.6654 62.7129 71.5195 61.8926C71.4557 62.0566 71.3691 62.2161 71.2598 62.3711C70.8587 62.8815 70.2982 63.1367 69.5781 63.1367C69.3229 63.1367 69.0859 63.1003 68.8672 63.0273C68.1836 62.7995 67.8418 62.2936 67.8418 61.5098C67.8509 60.2975 69.0495 59.6732 71.4375 59.6367V58.7617C71.4375 58.5885 71.4284 58.429 71.4102 58.2832C71.319 57.6361 71 57.3125 70.4531 57.3125C70.3073 57.3125 70.1751 57.3398 70.0566 57.3945C69.8835 57.4857 69.7422 57.7181 69.6328 58.0918C69.5964 58.2012 69.569 58.2786 69.5508 58.3242C69.4232 58.6615 69.1953 58.8301 68.8672 58.8301C68.7852 58.8301 68.7031 58.8164 68.6211 58.7891C68.3294 58.6979 68.1836 58.4974 68.1836 58.1875C68.1836 58.0234 68.2337 57.8685 68.334 57.7227C68.6712 57.2122 69.4141 56.957 70.5625 56.957C70.8177 56.957 71.0592 56.9798 71.2871 57.0254C72.3991 57.2441 72.9551 57.9414 72.9551 59.1172V61.9883C72.9551 62.4258 73.0599 62.6536 73.2695 62.6719C73.543 62.6628 73.707 62.3392 73.7617 61.7012L74.1172 61.7148C74.099 61.9701 74.0671 62.1888 74.0215 62.3711C73.8665 62.8815 73.4655 63.1367 72.8184 63.1367ZM70.207 62.5625C70.3164 62.5625 70.4349 62.5352 70.5625 62.4805C70.9909 62.2891 71.2826 61.8835 71.4375 61.2637V60.0195C70.9818 60.0286 70.6081 60.0742 70.3164 60.1562C69.6966 60.3203 69.3867 60.7122 69.3867 61.332C69.3867 61.3776 69.3867 61.4232 69.3867 61.4688C69.4232 62.1979 69.6966 62.5625 70.207 62.5625ZM77.3027 62.6445C77.3574 62.6445 77.4121 62.6491 77.4668 62.6582C77.5853 62.6855 77.6445 62.7995 77.6445 63H74.5V62.6445C74.6641 62.6445 74.8053 62.6309 74.9238 62.6035C75.2246 62.5397 75.375 62.3073 75.375 61.9062V57.4902H74.5V57.1484H76.7969L76.8652 58.2832C76.9564 58.0918 77.0749 57.9095 77.2207 57.7363C77.6764 57.2168 78.2324 56.957 78.8887 56.957C79.1621 56.957 79.4173 57.0072 79.6543 57.1074C80.4017 57.4173 80.7754 58.11 80.7754 59.1855V62.6445H81.3086C81.3633 62.6445 81.418 62.6491 81.4727 62.6582C81.5911 62.6855 81.6504 62.7995 81.6504 63H78.5195V62.6445C78.7109 62.6445 78.8568 62.6263 78.957 62.5898C79.1667 62.5169 79.2715 62.2891 79.2715 61.9062V58.9805C79.2715 58.7799 79.2487 58.5977 79.2031 58.4336C79.0664 57.8958 78.7428 57.627 78.2324 57.627C78.0592 57.627 77.8861 57.6725 77.7129 57.7637C77.2298 58.0371 76.9564 58.5384 76.8926 59.2676L76.8789 62.6445H77.3027ZM87.0645 63L86.9004 61.6738C86.873 61.7467 86.8366 61.8242 86.791 61.9062C86.3717 62.7266 85.7155 63.1367 84.8223 63.1367C84.321 63.1367 83.8652 62.9909 83.4551 62.6992C82.7168 62.1615 82.3477 61.3275 82.3477 60.1973C82.3477 59.3587 82.5618 58.6432 82.9902 58.0508C83.528 57.3216 84.248 56.957 85.1504 56.957C85.8249 56.957 86.3945 57.1712 86.8594 57.5996V54.4688H85.6016V54.1133H88.377V62.6445H89.0195C89.0924 62.6445 89.1517 62.6491 89.1973 62.6582C89.3066 62.6855 89.3613 62.7995 89.3613 63H87.0645ZM84.002 60.0332C84.002 60.4069 84.0293 60.7487 84.084 61.0586C84.2663 62.043 84.6947 62.5352 85.3691 62.5352C85.6152 62.5352 85.8385 62.4622 86.0391 62.3164C86.6042 61.8971 86.8867 61.0495 86.8867 59.7734C86.8867 59.3359 86.8457 58.9486 86.7637 58.6113C86.554 57.7819 86.1348 57.3672 85.5059 57.3672C85.2962 57.3672 85.0957 57.4219 84.9043 57.5312C84.3027 57.8867 84.002 58.7207 84.002 60.0332Z" fill="#FFFCF6"/>
<path d="M57.0684 75.8867C56.3483 75.8776 55.9154 75.4629 55.7695 74.6426C55.7057 74.8066 55.6191 74.9661 55.5098 75.1211C55.1087 75.6315 54.5482 75.8867 53.8281 75.8867C53.5729 75.8867 53.3359 75.8503 53.1172 75.7773C52.4336 75.5495 52.0918 75.0436 52.0918 74.2598C52.1009 73.0475 53.2995 72.4232 55.6875 72.3867V71.5117C55.6875 71.3385 55.6784 71.179 55.6602 71.0332C55.569 70.3861 55.25 70.0625 54.7031 70.0625C54.5573 70.0625 54.4251 70.0898 54.3066 70.1445C54.1335 70.2357 53.9922 70.4681 53.8828 70.8418C53.8464 70.9512 53.819 71.0286 53.8008 71.0742C53.6732 71.4115 53.4453 71.5801 53.1172 71.5801C53.0352 71.5801 52.9531 71.5664 52.8711 71.5391C52.5794 71.4479 52.4336 71.2474 52.4336 70.9375C52.4336 70.7734 52.4837 70.6185 52.584 70.4727C52.9212 69.9622 53.6641 69.707 54.8125 69.707C55.0677 69.707 55.3092 69.7298 55.5371 69.7754C56.6491 69.9941 57.2051 70.6914 57.2051 71.8672V74.7383C57.2051 75.1758 57.3099 75.4036 57.5195 75.4219C57.793 75.4128 57.957 75.0892 58.0117 74.4512L58.3672 74.4648C58.349 74.7201 58.3171 74.9388 58.2715 75.1211C58.1165 75.6315 57.7155 75.8867 57.0684 75.8867ZM54.457 75.3125C54.5664 75.3125 54.6849 75.2852 54.8125 75.2305C55.2409 75.0391 55.5326 74.6335 55.6875 74.0137V72.7695C55.2318 72.7786 54.8581 72.8242 54.5664 72.9062C53.9466 73.0703 53.6367 73.4622 53.6367 74.082C53.6367 74.1276 53.6367 74.1732 53.6367 74.2188C53.6732 74.9479 53.9466 75.3125 54.457 75.3125ZM61.1016 77.9922H61.8809C61.9355 77.9922 61.9902 77.9967 62.0449 78.0059C62.1634 78.0332 62.2227 78.1471 62.2227 78.3477H58.7363V77.9922C58.9368 77.9922 59.0964 77.974 59.2148 77.9375C59.4701 77.8646 59.5977 77.6367 59.5977 77.2539V70.2402H58.7363V69.8984H61.0059L61.0742 71.2656C61.1654 71.0104 61.2975 70.7734 61.4707 70.5547C61.9264 69.9896 62.5326 69.707 63.2891 69.707C63.7995 69.707 64.2507 69.8665 64.6426 70.1855C65.2897 70.7142 65.6133 71.5345 65.6133 72.6465C65.6133 73.5488 65.3717 74.2962 64.8887 74.8887C64.3418 75.554 63.6354 75.8867 62.7695 75.8867C62.0404 75.8776 61.4844 75.6589 61.1016 75.2305V77.9922ZM62.6602 70.3359C62.3776 70.3359 62.1178 70.4362 61.8809 70.6367C61.3522 71.1107 61.0879 71.9264 61.0879 73.084C61.0879 73.6582 61.1654 74.1504 61.3203 74.5605C61.5755 75.2077 61.9811 75.5312 62.5371 75.5312C62.6556 75.5312 62.765 75.5176 62.8652 75.4902C63.6035 75.2715 63.9727 74.3828 63.9727 72.8242C63.9635 71.1836 63.526 70.3542 62.6602 70.3359ZM71.3691 75.8867C70.6491 75.8776 70.2161 75.4629 70.0703 74.6426C70.0065 74.8066 69.9199 74.9661 69.8105 75.1211C69.4095 75.6315 68.849 75.8867 68.1289 75.8867C67.8737 75.8867 67.6367 75.8503 67.418 75.7773C66.7344 75.5495 66.3926 75.0436 66.3926 74.2598C66.4017 73.0475 67.6003 72.4232 69.9883 72.3867V71.5117C69.9883 71.3385 69.9792 71.179 69.9609 71.0332C69.8698 70.3861 69.5508 70.0625 69.0039 70.0625C68.8581 70.0625 68.7259 70.0898 68.6074 70.1445C68.4342 70.2357 68.293 70.4681 68.1836 70.8418C68.1471 70.9512 68.1198 71.0286 68.1016 71.0742C67.974 71.4115 67.7461 71.5801 67.418 71.5801C67.3359 71.5801 67.2539 71.5664 67.1719 71.5391C66.8802 71.4479 66.7344 71.2474 66.7344 70.9375C66.7344 70.7734 66.7845 70.6185 66.8848 70.4727C67.222 69.9622 67.9648 69.707 69.1133 69.707C69.3685 69.707 69.61 69.7298 69.8379 69.7754C70.9499 69.9941 71.5059 70.6914 71.5059 71.8672V74.7383C71.5059 75.1758 71.6107 75.4036 71.8203 75.4219C72.0938 75.4128 72.2578 75.0892 72.3125 74.4512L72.668 74.4648C72.6497 74.7201 72.6178 74.9388 72.5723 75.1211C72.4173 75.6315 72.0163 75.8867 71.3691 75.8867ZM68.7578 75.3125C68.8672 75.3125 68.9857 75.2852 69.1133 75.2305C69.5417 75.0391 69.8333 74.6335 69.9883 74.0137V72.7695C69.5326 72.7786 69.1589 72.8242 68.8672 72.9062C68.2474 73.0703 67.9375 73.4622 67.9375 74.082C67.9375 74.1276 67.9375 74.1732 67.9375 74.2188C67.974 74.9479 68.2474 75.3125 68.7578 75.3125ZM76.4414 75.3945C76.487 75.3945 76.528 75.3991 76.5645 75.4082C76.7012 75.4264 76.7695 75.5404 76.7695 75.75H73.0645V75.3945C73.2467 75.3945 73.3971 75.3809 73.5156 75.3535C73.7891 75.2806 73.9258 75.0482 73.9258 74.6562V70.2402H73.0645V69.8984H75.3203L75.4023 71.1836C75.5117 70.9193 75.6621 70.6823 75.8535 70.4727C76.291 70.0169 76.7878 69.7891 77.3438 69.7891C77.4531 69.7891 77.5625 69.8027 77.6719 69.8301C78.1003 69.9395 78.3145 70.2129 78.3145 70.6504C78.3145 70.7598 78.2917 70.8646 78.2461 70.9648C78.1094 71.2839 77.877 71.4434 77.5488 71.4434C77.4577 71.4434 77.3711 71.4297 77.2891 71.4023C77.1159 71.3477 76.9518 71.1745 76.7969 70.8828C76.6784 70.6732 76.5599 70.5684 76.4414 70.5684C76.3685 70.5684 76.2819 70.6003 76.1816 70.6641C75.7533 70.9648 75.5072 71.5527 75.4434 72.4277V75.3945H76.4414ZM78.6152 70.2949V69.9395H79.5586V68.6406L81.0625 68.3535V69.9395H82.9766V70.2949H81.0625V74.4375C81.0625 74.5286 81.0671 74.6198 81.0762 74.7109C81.14 75.2305 81.3633 75.4902 81.7461 75.4902C82.1927 75.4811 82.5163 75.071 82.7168 74.2598L83.0859 74.3145C83.0312 74.597 82.9583 74.8385 82.8672 75.0391C82.612 75.6133 82.1243 75.9004 81.4043 75.9004C80.2559 75.8548 79.6406 75.1712 79.5586 73.8496V70.2949H78.6152ZM86.2168 75.3945C86.2624 75.3945 86.3034 75.3991 86.3398 75.4082C86.4766 75.4264 86.5449 75.5404 86.5449 75.75H83.4688V75.3945C83.6328 75.3945 83.7741 75.3809 83.8926 75.3535C84.1934 75.2897 84.3438 75.0573 84.3438 74.6562V70.2402H83.4688V69.8984H85.7656L85.834 70.9922C85.8704 70.9193 85.9069 70.8464 85.9434 70.7734C86.3535 70.0625 86.9596 69.707 87.7617 69.707C87.9167 69.707 88.0671 69.7298 88.2129 69.7754C88.778 69.9486 89.1608 70.3724 89.3613 71.0469C89.3704 71.0195 89.3841 70.9876 89.4023 70.9512C89.8307 70.1217 90.4733 69.707 91.3301 69.707C91.6491 69.707 91.9453 69.7936 92.2188 69.9668C92.8203 70.3405 93.1211 70.9785 93.1211 71.8809V75.3945H93.6406C93.6953 75.3945 93.75 75.3991 93.8047 75.4082C93.9232 75.4355 93.9824 75.5495 93.9824 75.75H90.9062V75.3945C91.1068 75.3945 91.2572 75.3717 91.3574 75.3262C91.5306 75.2533 91.6172 75.0299 91.6172 74.6562V71.7305C91.6172 71.4844 91.5853 71.2565 91.5215 71.0469C91.3574 70.582 91.0658 70.3496 90.6465 70.3496C90.528 70.3496 90.4095 70.377 90.291 70.4316C89.8535 70.6413 89.5846 71.0833 89.4844 71.7578V71.9355V75.3945H89.8398C89.8945 75.3945 89.9492 75.3991 90.0039 75.4082C90.1224 75.4355 90.1816 75.5495 90.1816 75.75H87.2695V75.3945C87.4701 75.3945 87.6204 75.3717 87.7207 75.3262C87.8939 75.2533 87.9805 75.0299 87.9805 74.6562V71.7305C87.9805 71.4753 87.9486 71.2474 87.8848 71.0469C87.7298 70.6003 87.4655 70.377 87.0918 70.377C86.946 70.377 86.8001 70.418 86.6543 70.5C86.1895 70.7643 85.9251 71.2702 85.8613 72.0176L85.8477 75.3945H86.2168ZM97.6875 70.0625C97.5872 70.0625 97.4824 70.0762 97.373 70.1035C96.7259 70.304 96.3841 71.0514 96.3477 72.3457L97.4004 72.3867C97.7832 72.3958 98.0749 72.373 98.2754 72.3184C98.5853 72.209 98.7402 71.9401 98.7402 71.5117C98.7402 71.3568 98.7266 71.2064 98.6992 71.0605C98.5898 70.3952 98.2526 70.0625 97.6875 70.0625ZM100.189 74.3691C100.135 74.5059 100.066 74.6426 99.9844 74.7793C99.5195 75.5176 98.7676 75.8867 97.7285 75.8867C97.1178 75.8867 96.5664 75.75 96.0742 75.4766C95.1536 74.9388 94.6934 74.0456 94.6934 72.7969C94.6934 72.0312 94.8893 71.3796 95.2812 70.8418C95.8372 70.0853 96.6393 69.707 97.6875 69.707C98.2617 69.707 98.7767 69.8164 99.2324 70.0352C99.9616 70.3997 100.326 70.9421 100.326 71.6621C100.326 71.8626 100.281 72.0358 100.189 72.1816C99.916 72.6009 99.0957 72.7969 97.7285 72.7695L96.3477 72.7422C96.3477 72.7513 96.3477 72.7604 96.3477 72.7695C96.3932 74.5833 96.9492 75.4902 98.0156 75.4902C98.2161 75.4902 98.4121 75.4583 98.6035 75.3945C99.1777 75.2122 99.597 74.834 99.8613 74.2598L100.189 74.3691ZM103.812 75.3945C103.867 75.3945 103.922 75.3991 103.977 75.4082C104.095 75.4355 104.154 75.5495 104.154 75.75H101.01V75.3945C101.174 75.3945 101.315 75.3809 101.434 75.3535C101.734 75.2897 101.885 75.0573 101.885 74.6562V70.2402H101.01V69.8984H103.307L103.375 71.0332C103.466 70.8418 103.585 70.6595 103.73 70.4863C104.186 69.9668 104.742 69.707 105.398 69.707C105.672 69.707 105.927 69.7572 106.164 69.8574C106.911 70.1673 107.285 70.86 107.285 71.9355V75.3945H107.818C107.873 75.3945 107.928 75.3991 107.982 75.4082C108.101 75.4355 108.16 75.5495 108.16 75.75H105.029V75.3945C105.221 75.3945 105.367 75.3763 105.467 75.3398C105.676 75.2669 105.781 75.0391 105.781 74.6562V71.7305C105.781 71.5299 105.758 71.3477 105.713 71.1836C105.576 70.6458 105.253 70.377 104.742 70.377C104.569 70.377 104.396 70.4225 104.223 70.5137C103.74 70.7871 103.466 71.2884 103.402 72.0176L103.389 75.3945H103.812ZM108.639 70.2949V69.9395H109.582V68.6406L111.086 68.3535V69.9395H113V70.2949H111.086V74.4375C111.086 74.5286 111.09 74.6198 111.1 74.7109C111.163 75.2305 111.387 75.4902 111.77 75.4902C112.216 75.4811 112.54 75.071 112.74 74.2598L113.109 74.3145C113.055 74.597 112.982 74.8385 112.891 75.0391C112.635 75.6133 112.148 75.9004 111.428 75.9004C110.279 75.8548 109.664 75.1712 109.582 73.8496V70.2949H108.639ZM115.83 75.5039C116.441 75.5039 116.819 75.2988 116.965 74.8887C116.992 74.7975 117.006 74.7064 117.006 74.6152C117.006 74.1777 116.719 73.8086 116.145 73.5078C116.017 73.444 115.816 73.3529 115.543 73.2344C114.841 72.9245 114.372 72.6419 114.135 72.3867C113.889 72.0951 113.766 71.7578 113.766 71.375C113.766 70.6549 114.158 70.1582 114.941 69.8848C115.288 69.7663 115.675 69.707 116.104 69.707C116.769 69.707 117.316 69.8346 117.744 70.0898C117.744 69.8164 117.817 69.666 117.963 69.6387C118.008 69.6296 118.054 69.625 118.1 69.625V71.334H117.689C117.653 70.5046 117.197 70.0853 116.322 70.0762C115.712 70.0762 115.333 70.2676 115.188 70.6504C115.151 70.7507 115.133 70.8509 115.133 70.9512C115.133 71.334 115.406 71.6667 115.953 71.9492C116.072 72.0039 116.263 72.0905 116.527 72.209C117.247 72.5189 117.726 72.806 117.963 73.0703C118.236 73.3802 118.373 73.7448 118.373 74.1641C118.373 74.9388 117.972 75.4583 117.17 75.7227C116.842 75.832 116.477 75.8867 116.076 75.8867C115.311 75.8867 114.668 75.7363 114.148 75.4355C114.148 75.6725 114.089 75.8092 113.971 75.8457C113.916 75.8548 113.852 75.8594 113.779 75.8594V73.7812H114.217C114.235 74.9206 114.773 75.4948 115.83 75.5039Z" fill="#FFFCF6"/>
</svg>
